<?xml version="1.0" encoding="UTF-8"?>
<svg xmlns="http://www.w3.org/2000/svg" viewBox="0 0 512 512">
  <path d="m438.83,420.99c3.03,14.26,2.16,28.31-3.24,41.93-8.64,22.04-24.42,33.28-47.98,33.93-17.94.43-35.23-3.24-52.73-6.27-24.21-4.32-48.63-8.21-73.05-12.1-4.11-.43-8.21-.22-10.37-.43-23.77.22-45.17,4.97-66.57,9.51-20.53,4.32-40.85,8.86-62.03,8.64-44.95-.22-70.24-40.63-56.62-80.83,8.21-23.99,22.91-43.66,41.71-60.3,15.99-14.05,32.63-27.66,45.6-44.74,9.73-12.75,18.8-25.93,28.31-38.9,9.08-12.75,18.37-25.5,30.69-35.44,21.61-17.51,45.82-22.91,72.4-14.48,13.4,4.32,23.77,13.4,31.55,25.07,7.78,11.45,14.48,23.56,21.4,35.44,17.72,29.82,38.9,57.06,64.4,80.61,17.51,16.21,31.34,34.58,36.52,58.35Zm-142.64-239.9c16.21,19.02,40.63,24.21,63.11,13.4,9.51-4.75,17.72-11.24,24.64-19.23,19.23-22.48,27.23-48.84,28.1-76.94-.22-20.32-3.67-38.47-13.83-54.9-11.89-18.59-28.1-29.82-50.79-28.31-17.72,1.08-31.77,10.37-43.22,23.34-21.61,24.64-30.04,53.81-28.74,86.23.86,20.96,6.92,40.2,20.75,56.41Zm-154.53,10.81c28.53,21.18,62.46,14.48,81.26-15.56,9.94-15.99,13.62-33.93,14.05-54.25-.22-2.81-.22-7.35-.86-12.1-3.24-27.23-13.18-51.44-33.5-70.24-15.99-14.7-34.36-22.26-56.19-15.99-18.37,5.4-30.04,19.02-37.61,36.09-9.51,21.83-10.59,44.52-5.84,67.43,5.4,26.15,17.07,48.63,38.69,64.62Zm362.22,5.62c-6.92-14.26-17.51-23.99-33.28-26.58-13.4-1.95-25.5,2.16-36.74,9.51-32.42,21.61-50.79,70.46-40.2,108.06,5.19,18.59,15.34,33.07,35.01,37.39,16.43,3.67,30.91-1.95,43.66-12.1,25.93-20.96,37.17-49.28,38.69-78.24,0-15.78-1.95-27.23-7.13-38.04Zm-390.53,104.6c5.84-11.24,8-23.34,8-35.88,0-1.3.22-2.38.22-3.24,0-2.59-.22-5.4-.65-8-4.11-28.74-16.21-52.95-39.33-70.67-10.81-8.21-22.91-13.18-36.52-11.89-19.45,1.73-31.99,13.4-38.47,31.12-10.16,27.23-5.62,53.38,7.13,78.45,9.08,18.37,22.48,32.85,41.71,41.06,23.13,9.73,46.25,1.3,57.92-20.96Z" style="stroke-width: 0px;"/>
</svg>