<?xml version="1.0" encoding="UTF-8"?>
<svg xmlns="http://www.w3.org/2000/svg" viewBox="0 0 512 512">
  <path d="m110.27,444.9c12.15-.01,22.07-9.73,22.34-21.88l5.41-113.52h1.28c11.66-.01,21.27-9.13,21.91-20.77l17.16-139.56v-.94c-.02-12.11-9.84-21.91-21.95-21.93H30.32c-12.11.01-21.92,9.82-21.95,21.93v.94l17.16,139.56c.64,11.64,10.26,20.75,21.91,20.77h1.28l5.41,113.52c.27,12.15,10.18,21.87,22.34,21.88h33.8Z"/>
  <path d="m467.34,146.27c-.89-11.16-10.54-19.97-22.27-19.97h-63.61c-11.73,0-21.38,8.81-22.27,19.97l-36.29,208.28v1.3c0,11.95,10.02,21.66,22.34,21.66h26.9l4.46,49.4c.56,10.06,9.63,17.54,21.55,17.54h30.25c11.91,0,20.99-7.47,21.54-17.54l4.46-49.4h26.9c12.31,0,22.34-9.71,22.34-21.66v-1.3l-36.29-208.28Z"/>
  <path d="m93.37,117.69c-26.74,0-48.43-21.67-48.43-48.42,0-26.74,21.67-48.43,48.42-48.43,26.74,0,48.43,21.67,48.43,48.42h0c-.03,26.74-21.69,48.4-48.42,48.43h0Z"/>
  <path d="m413.27,117.69c-26.74,0-48.42-21.68-48.42-48.42s21.68-48.42,48.42-48.42c26.74,0,48.42,21.68,48.42,48.42-.03,26.73-21.69,48.39-48.42,48.42Z"/>
  <path d="m251.01,0C242.67,0,235.92,6.76,235.92,15.09v481.81c0,8.34,6.76,15.09,15.09,15.09h0c8.34,0,15.09-6.76,15.09-15.09V15.09C266.1,6.76,259.35,0,251.01,0Z"/>
</svg>