<?xml version="1.0" encoding="UTF-8"?>
<svg xmlns="http://www.w3.org/2000/svg" viewBox="0 0 512 512">
  <path d="m52,52v72.15L1,182.15v5.85c0,27.97,23.04,41,51,41v231h262v-163h54v163h92v-231c27.97,0,51-13.03,51-41v-5.85l-51-58V52H52Zm24,24h360v37H76v-37Zm1.5,61h357l50.9,54.72c-1.87,7.36-7.43,13.28-15.4,13.28-9.44,0-17-7.56-17-17h-44c0,9.44-7.56,17-17,17s-17-7.56-17-17h-34c0,9.44-7.56,17-17,17s-17-7.56-17-17h-34c0,9.44-7.56,17-17,17s-17-7.56-17-17h-34c0,9.44-7.56,17-17,17s-17-7.56-17-17h-34c0,9.44-7.56,17-17,17s-17-7.56-17-17h-44c0,9.44-7.57,17-17,17-7.97,0-13.55-5.92-15.4-13.28l50.9-54.72Zm-1.5,78.72c9.03,8.16,30.98,13.28,44,13.28s24.97-5.1,34-13.28c9.03,8.16,20.98,13.28,34,13.28s24.97-5.1,34-13.28c9.03,8.16,20.98,13.28,34,13.28s24.97-5.1,34-13.28c9.03,8.16,20.98,13.28,34,13.28s24.97-5.1,34-13.28c9.03,8.16,20.98,13.28,34,13.28s34.97-5.1,44-13.28v220.28h-44v-163h-102v163H76v-220.28Zm44,57.28v119h136v-119H120Zm24,24h88v71h-88v-71Z"/>
</svg>