<?xml version="1.0" encoding="UTF-8"?>
<svg xmlns="http://www.w3.org/2000/svg" viewBox="0 0 512 512">
  <path d="m184.75,424.38l13.61,13.61-31.93,31.93c-1.8,1.8-4.25,2.82-6.8,2.82h-.02c-2.56,0-5.01-1.03-6.81-2.84l-48.64-48.96c-3.67-3.69-3.74-9.63-.16-13.4,9.81-10.35,9.79-26.55-.04-36.88-4.93-5.18-11.58-8.13-18.73-8.31-7.14-.17-13.94,2.44-19.12,7.37-3.78,3.6-9.75,3.53-13.44-.17L3.82,320.7c-3.75-3.76-3.76-9.84,0-13.6L232.96,77.42c1.85-1.86,4.39-2.89,7.01-2.82,2.62.05,5.11,1.18,6.89,3.11l15.65,17.03-14.17,13.02-8.85-9.63L24.22,313.89l36.09,36.09c7.55-4.7,16.29-7.1,25.39-6.88,12.29.3,23.72,5.38,32.2,14.28,14.69,15.43,16.63,38.48,5.82,55.93l35.93,36.16,25.1-25.1Zm178.79-251.39l-28.42-28.42-13.61,13.61,28.42,28.42,13.61-13.61Zm144.64,31.7l-250.33,250.43c-1.8,1.81-4.25,2.82-6.8,2.82s-5-1.01-6.81-2.82l-48.85-48.85c-3.69-3.69-3.77-9.66-.17-13.44,9.83-10.33,9.85-26.53.04-36.88-4.92-5.19-11.57-8.16-18.72-8.35-7.16-.2-13.95,2.41-19.14,7.33-3.79,3.59-9.74,3.51-13.42-.18l-48.85-48.85c-3.76-3.76-3.76-9.85,0-13.61L345.36,42.08c3.76-3.76,9.85-3.76,13.61,0l47.55,47.55c2.55,1.77,4.13,4.71,4.13,7.9v.21c0,3.1-1.48,5.95-3.9,7.74-4.38,4.91-6.77,11.18-6.77,17.81,0,7.16,2.79,13.89,7.85,18.95,5.06,5.06,11.79,7.85,18.95,7.85s13.89-2.79,18.95-7.85c1.8-1.8,4.25-2.82,6.8-2.82s5,1.01,6.8,2.82l48.85,48.85c3.76,3.76,3.76,9.85,0,13.61Zm-20.41-6.8l-35.95-35.95c-7.39,4.81-16.02,7.39-25.05,7.39-12.3,0-23.86-4.79-32.56-13.49-8.7-8.7-13.49-20.26-13.49-32.56,0-8.97,2.55-17.56,7.31-24.92l-35.87-35.87-49.59,49.59,18.39,18.32-13.58,13.63-18.41-18.35-173.41,173.41,36.1,36.1c7.56-4.69,16.31-7.08,25.42-6.83,12.29.33,23.71,5.42,32.17,14.35,14.64,15.45,16.55,38.48,5.72,55.9l36.09,36.09,173.43-173.5-17.83-17.9,13.63-13.58,17.8,17.87,49.69-49.71Zm-123.68,2.87l28.42,28.42,13.61-13.61-28.42-28.42-13.61,13.61Zm.8,85.5c-.5,3.66-3.06,6.72-6.58,7.85l-39.58,12.75-12.75,39.68c-1.13,3.52-4.18,6.08-7.85,6.59-.44.06-.88.09-1.32.09-3.2,0-6.22-1.6-8.02-4.31l-22.34-33.75-43.31.38h-.09c-3.73,0-7.13-2.16-8.71-5.54-1.6-3.41-1.06-7.43,1.37-10.3l26.76-31.63-15.52-40.45c-1.36-3.54-.51-7.56,2.17-10.24,2.68-2.69,6.69-3.55,10.24-2.19l40.47,15.43,31.75-26.78c2.87-2.43,6.9-2.95,10.3-1.35,3.4,1.6,5.56,5.03,5.53,8.79l-.38,43.41,33.64,22.23c3.09,2.04,4.73,5.67,4.23,9.33Zm-31.55-4.33l-21.29-14.07c-2.72-1.8-4.34-4.85-4.32-8.11l.24-27.69-20.07,16.93c-2.68,2.26-6.37,2.88-9.63,1.64l-25.63-9.78,9.84,25.65c1.26,3.28.63,6.98-1.64,9.66l-16.88,19.95,27.55-.24h.08c3.23,0,6.24,1.62,8.02,4.31l14.17,21.4,8.13-25.31c.95-2.95,3.26-5.26,6.21-6.22l25.21-8.12Z"/>
</svg>