<?xml version="1.0" encoding="UTF-8"?>
<svg xmlns="http://www.w3.org/2000/svg" viewBox="0 0 512 512">
  <path d="m94.5,332.5c4.69,0,8.5-3.81,8.5-8.5v-59.5c0-14.06-11.44-25.5-25.5-25.5s-25.5,11.44-25.5,25.5v59.5c0,4.69,3.81,8.5,8.5,8.5s8.5-3.81,8.5-8.5v-59.5c0-4.68,3.82-8.5,8.5-8.5s8.5,3.82,8.5,8.5v59.5c0,4.69,3.81,8.5,8.5,8.5Zm-34-153c4.69,0,8.5-3.81,8.5-8.5v-25.5c0-4.69-3.81-8.5-8.5-8.5s-8.5,3.81-8.5,8.5v25.5c0,4.69,3.81,8.5,8.5,8.5Zm102,144.5c4.69,0,8.5-3.81,8.5-8.5v-59.5c0-14.06-11.44-25.5-25.5-25.5s-25.5,11.44-25.5,25.5v59.5c0,4.69,3.81,8.5,8.5,8.5s8.5-3.81,8.5-8.5v-59.5c0-4.68,3.82-8.5,8.5-8.5s8.5,3.82,8.5,8.5v59.5c0,4.69,3.81,8.5,8.5,8.5Zm-103.67-127.33c-4.61.92-7.59,5.39-6.66,10,.91,4.6,5.4,7.58,10,6.66.84-.16,85.43-16.83,185.33-16.83h28.75l6.15,12.3c.82,1.65,2.16,2.98,3.81,3.81l10.9,5.45-1.97,7.9c-3.94-2.51-8.62-3.95-13.63-3.95-14.06,0-25.5,11.44-25.5,25.5v59.5c0,4.69,3.81,8.5,8.5,8.5s8.5-3.81,8.5-8.5v-59.5c0-4.68,3.82-8.5,8.5-8.5s8.5,3.82,8.5,8.5c0,4.29,3.2,7.91,7.46,8.44,4.18.49,8.24-2.22,9.28-6.38l8.5-34c.97-3.87-.88-7.89-4.45-9.67l-14.47-7.22-7.22-14.47c-1.45-2.88-4.39-4.7-7.61-4.7h-34c-101.66,0-187.81,16.99-188.67,17.17Zm171.67,118.83c4.69,0,8.5-3.81,8.5-8.5v-59.5c0-14.06-11.44-25.5-25.5-25.5s-25.5,11.44-25.5,25.5v59.5c0,4.69,3.81,8.5,8.5,8.5s8.5-3.81,8.5-8.5v-59.5c0-4.68,3.82-8.5,8.5-8.5s8.5,3.82,8.5,8.5v59.5c0,4.69,3.81,8.5,8.5,8.5Zm-127.5-153v-25.5c0-4.69-3.81-8.5-8.5-8.5s-8.5,3.81-8.5,8.5v25.5c0,4.69,3.81,8.5,8.5,8.5,4.69,0,8.5-3.81,8.5-8.5Zm331.5,170c4.69,0,8.5-3.81,8.5-8.5v-51c0-14.06-11.44-25.5-25.5-25.5-4.69,0-8.5,3.81-8.5,8.5s3.81,8.5,8.5,8.5,8.5,3.82,8.5,8.5v51c0,4.69,3.81,8.5,8.5,8.5ZM137,158.51v-25.23c0-4.7-3.81-8.5-8.5-8.5s-8.5,3.8-8.5,8.5v25.23c0,4.69,3.81,8.5,8.5,8.5s8.5-3.81,8.5-8.5Zm365.5,258.99h-25.5v-42.5c0-4.68,3.82-8.5,8.5-8.5s8.5-3.81,8.5-8.5v-136c0-15.25-10.25-25.5-25.5-25.5h-59.5c-3.22,0-6.16,1.82-7.61,4.7l-8.5,17c-.59,1.17-.89,2.48-.89,3.8v13.48l-14.51,14.51c-.65.65-1.18,1.39-1.6,2.21l-8.5,17c-.59,1.17-.89,2.48-.89,3.8v31.61l-23.43-5.86c-1.98-.5-4.05-.26-5.87.64l-11.53,5.76-21.17-21.17c-3.32-3.32-8.7-3.32-12.02,0-3.32,3.32-3.32,8.7,0,12.02l25.5,25.5c2.58,2.58,6.54,3.23,9.81,1.6l14.19-7.1,30.95,7.73c2.55.65,5.24.07,7.29-1.55,2.07-1.61,3.27-4.08,3.27-6.7v-40.49l6.99-13.97,16.02-16.02c1.6-1.59,2.49-3.76,2.49-6.01v-14.99l5.25-10.51h54.25c5.87,0,8.5,2.63,8.5,8.5v128.95c-9.89,3.51-17,12.96-17,24.05v42.5h-17v-42.5c0-14.06-11.44-25.5-25.5-25.5s-25.5,11.44-25.5,25.5v42.5h-17v-51c0-14.06-11.44-25.5-25.5-25.5s-25.5,11.44-25.5,25.5v51h-17v-59.5c0-14.06-11.44-25.5-25.5-25.5s-25.5,11.44-25.5,25.5v59.5h-17v-59.5c0-14.06-11.44-25.5-25.5-25.5s-25.5,11.44-25.5,25.5v59.5h-17v-51c0-14.06-11.44-25.5-25.5-25.5s-25.5,11.44-25.5,25.5v51h-17v-42.5c0-14.06-11.44-25.5-25.5-25.5s-25.5,11.44-25.5,25.5v42.5h-17V125.69c18.26-7.19,84.13-30.68,167.25-31.19,17.88,14.1,32.72,55.16,37.08,70.33,1.28,4.51,6,7.12,10.51,5.83,4.51-1.28,7.12-5.99,5.83-10.51-1.82-6.39-18.64-63.03-45.95-81.23-1.39-.93-3.04-1.43-4.72-1.43-102.62,0-178.76,33.31-181.95,34.73-3.07,1.37-5.05,4.41-5.05,7.77v297.5h-8.5c-4.69,0-8.5,3.81-8.5,8.5s3.81,8.5,8.5,8.5h493c4.69,0,8.5-3.81,8.5-8.5s-3.81-8.5-8.5-8.5Zm-416.5,0h-17v-42.5c0-4.68,3.82-8.5,8.5-8.5s8.5,3.82,8.5,8.5c0,0,0,42.5,0,42.5Zm68,0h-17v-51c0-4.68,3.82-8.5,8.5-8.5s8.5,3.82,8.5,8.5v51h0Zm68,0h-17v-59.5c0-4.68,3.82-8.5,8.5-8.5s8.5,3.82,8.5,8.5v59.5h0Zm68,0h-17v-59.5c0-4.68,3.82-8.5,8.5-8.5s8.5,3.82,8.5,8.5v59.5h0Zm68,0h-17v-51c0-4.68,3.82-8.5,8.5-8.5s8.5,3.82,8.5,8.5v51h0Zm68,0h-17v-42.5c0-4.68,3.82-8.5,8.5-8.5s8.5,3.82,8.5,8.5v42.5h0Zm-17-93.5v-34c0-4.69-3.81-8.5-8.5-8.5s-8.5,3.81-8.5,8.5v34c0,4.69,3.81,8.5,8.5,8.5s8.5-3.81,8.5-8.5Zm-238-170v-25.5c0-4.69-3.81-8.5-8.5-8.5s-8.5,3.81-8.5,8.5v25.5c0,4.69,3.81,8.5,8.5,8.5,4.69,0,8.5-3.81,8.5-8.5Zm34,0v-25.5c0-4.69-3.81-8.5-8.5-8.5s-8.5,3.81-8.5,8.5v25.5c0,4.69,3.81,8.5,8.5,8.5s8.5-3.81,8.5-8.5Z"/>
</svg>