<?xml version="1.0" encoding="UTF-8"?>
<svg xmlns="http://www.w3.org/2000/svg" viewBox="0 0 512 512">
  <path d="m43.83,102.76c2.19,3.06,2.62,18.35,2.62,72.98,0,68.61,0,69.49,4.37,75.6l4.37,6.12h412.54v-37.15q0-45.01,22.29-45.01c10.49,0,15.3.87,17.48,3.5,3.06,3.06,3.5,16.17,3.5,116.68,0,85.66-.44,114.06-2.62,115.81-1.31,1.31-9.18,2.62-19.23,2.62-24.04,0-23.6.44-23.6-36.27v-29.72H46.45v29.72c0,36.71.44,36.27-23.6,36.27-10.49,0-17.92-.87-19.23-2.62-1.75-1.75-2.62-38.89-2.62-154.7,0-83.47.87-152.96,1.75-154.27,2.62-3.93,7.43-4.81,22.72-3.93,12.24,0,16.17,1.31,18.35,4.37Zm102.26,31.47c9.61,4.37,22.72,17.92,27.1,28.41,1.75,3.93,3.06,13.11,3.06,20.1,0,29.28-22.72,52.01-51.57,52.44-15.3,0-25.78-3.5-36.27-12.67-24.04-21.41-24.47-56.38-1.31-78.66,15.73-14.86,38.46-18.79,59-9.61Zm215.01,33.21c58.56,3.93,69.49,11.8,71.67,47.63l.87,17.92h-253.47v-10.93c0-12.67,3.93-25.78,10.93-34.96,6.12-7.43,22.72-17.04,34.52-19.23,12.67-3.06,102.26-3.06,135.48-.44Z" style="stroke-width: 0px;"/>
</svg>