<?xml version="1.0" encoding="UTF-8"?>
<svg xmlns="http://www.w3.org/2000/svg" viewBox="0 0 512 512">
  <path d="m401.52,135.13L274.79,8.94c-10.44-10.53-27.43-10.6-37.96-.16l-.16.16-126.19,126.19H41.22c-14.83,0-26.85,12.02-26.85,26.85v322.18c0,14.83,12.02,26.85,26.85,26.85h429.57c14.83,0,26.85-12.02,26.85-26.85h0V161.98c0-14.83-12.02-26.85-26.85-26.85h-69.27ZM256,25.86l109.27,109.27h-218.54s109.27-109.27,109.27-109.27ZM48.06,477.3V168.82h415.87v308.48H48.06Zm154.24-207.94c0,14.83-12.02,26.85-26.85,26.85s-26.85-12.02-26.85-26.85h0c0-14.83,12.02-26.85,26.85-26.85s26.84,12.02,26.85,26.85Zm187.94,134.24h-214.78l35.79-71.59c1.84-3.69,7.11-3.69,8.95,0l22.37,44.74,62.59-125.19c1.86-3.73,7.19-3.73,9.05,0l76.02,152.04h.01Z"/>
</svg>