<?xml version="1.0" encoding="UTF-8"?>
<svg xmlns="http://www.w3.org/2000/svg" viewBox="0 0 510 366.47">
  <path d="m488.45,116.39c12.5-7.62,42.64-13.87-2.2-32.87-58.06-22.44-151.77-57.65-200.47-76.59-25.41-12.39-40.02-6.46-67.7,4.42C171.35,28.53,83.17,60.06,29.84,79.72c-40.89,14.9-38.45,26.05-.65,43.6,59.14,22.63,163.84,63.73,194.66,75.51,23.83,9.11,41.36,8.83,65.51-1.75,33.2-13.84,59.09-24.15,168.01-67.74v64.67l-25.66,22.67,37.49,36.31,37.03-37.41-17.76-17.26v-81.91h0Zm-193.84,113.11c-22.71,11.64-54.48,8.66-79.52,0-40.61-13.5-74.18-28.26-104.09-40.09v125.32s51.23,51.74,146.06,51.74c88.05,0,138.15-51.74,138.15-51.74v-129.34c-38.73,16.1-74.25,33.55-100.6,44.11h0Z"/>
</svg>