<?xml version="1.0" encoding="UTF-8"?>
<svg xmlns="http://www.w3.org/2000/svg" viewBox="0 0 512 512">
  <path d="m118.8,144H.2c2.2-31,14.3-60.4,34.7-83.9l83.9,83.9ZM.2,168.2c2.1,31.1,14.3,60.7,34.7,84.2l83.9-84.2H.2Zm132.9-38.6V11c-31,2.2-60.4,14.4-83.8,34.7l83.8,83.9Zm20.3-118.6v118.6l83.9-83.9c-23.5-20.4-52.9-32.5-83.9-34.7Zm-20.3,290.2v-118.1l-83.8,83.4c23.4,20.3,52.8,32.5,83.8,34.7Zm153.3-157.2c-2.1-31-14.3-60.5-34.7-83.9l-83.8,83.9h118.5Zm223.8,24.5l-54.3,310c-1.2,10.9-9.1,19.9-19.8,22.4h-212.6c-10.6-2.6-18.5-11.5-19.8-22.4l-54.3-310h360.8Zm-34.2,26.4H183.5l41.9,244.1c1,9.5,8,17.3,17.3,19.5h174c9.3-2.1,16.3-10,17.3-19.5l42-244.1Zm-146.3,67.5h-114.9l30.9,166.8h168l30.9-166.8h-114.9Z"/>
</svg>