<?xml version="1.0" encoding="UTF-8"?>
<svg xmlns="http://www.w3.org/2000/svg" viewBox="0 0 512 512">
  <path d="m504.98,123.25c-3.8-1.54-9.86-4.74-17.09-6.67-7.23-2.04-16.99-5.43-26.95-6.28-10.06-1.05-21.43-1.36-33.86-.76-12.13.99-24.45,3.56-37.66,6.98-13.19,3.4-25.26,9.07-38.16,15.27-12.58,6.41-24.05,14.41-35.54,23.13-10.85,9-21.15,18.96-30.57,29.55-8.78,10.88-17.51,22.08-24.23,34.03-6.93,11.87-12.91,24.09-17.23,36.58-9.25,24.74-12.94,50.2-13.32,72.87.03,11.5.71,22.18,2.14,31.99,1.24,9.75,3.69,18.75,5.57,26.02.76,3.41,1.83,6.68,2.89,9.57,1.86-3.89,3.87-8,6.12-12.5,11.16-22.14,27.44-50.98,46.47-77.99,9.48-13.52,19.88-26.38,30.01-38.01,5.37-5.58,10.56-10.96,15.46-16.05,5.27-4.73,10.24-9.22,14.8-13.34,4.95-3.71,9.45-7.1,13.46-10.11,3.85-3.19,7.87-5.05,10.89-6.96,6.15-3.64,9.66-5.72,9.66-5.72,0,0-3.35,2.36-9.18,6.45-2.84,2.17-6.65,4.28-10.23,7.74-3.71,3.27-7.89,6.96-12.46,10.98-4.19,4.44-8.72,9.2-13.51,14.25-4.41,5.37-9.07,11.04-13.87,16.91-9.07,12.21-18.18,25.54-26.39,39.5-16.52,27.79-30.14,57.19-39.3,79.56-2.58,6.3-4.75,11.93-6.61,16.91,3.92-1.05,8.91-2.16,14.28-4.14,6.82-2.37,15.62-4.81,24.16-8.29,8.74-3.34,18.05-7.29,27.45-11.78,9.55-4.43,18.85-9.63,28.37-15.1,9.52-5.45,18.53-11.68,27.49-18.09,8.7-6.66,17.33-13.4,25.17-20.85,7.74-7.66,15.57-14.85,22.33-23.16,13.91-15.93,25.75-32.97,35.4-50.95,5.02-8.47,9.2-18.33,13.29-27.24,4.14-8.84,7.66-18.66,11.16-27.66,3.53-8.83,6.8-17.78,9.68-26.5,3.13-8.98,5.87-16.81,8.14-23.24,2.62-6.4,4.26-13.09,5.73-17.02,1.36-4.45,2.06-6.8,2.06-6.8,0,0-2.11-1.28-6.03-3.06Z" style="stroke-width: 0px;"/>
  <path d="m196.82,322.32c-13.52-9.48-26.37-19.89-38-30.03-5.57-5.34-10.95-10.54-16.05-15.45-4.74-5.27-9.2-10.24-13.36-14.8-3.71-4.93-7.08-9.47-10.1-13.46-3.19-3.85-5.02-7.87-6.96-10.89-3.65-6.14-5.72-9.66-5.72-9.66,0,0,2.36,3.35,6.47,9.18,2.14,2.83,4.26,6.64,7.74,10.22,3.27,3.72,6.96,7.9,10.98,12.48,4.43,4.17,9.2,8.72,14.25,13.49,5.36,4.41,11.05,9.07,16.91,13.87,12.2,9.03,25.54,18.18,39.49,26.39,5.77,3.45,11.62,6.48,17.46,9.59,1.93-31.19,8.33-62.02,17.92-90.11-5.49-7.1-11.06-14.09-17.19-20.49-7.66-7.76-14.82-15.58-23.15-22.33-15.94-13.91-32.96-25.75-50.94-35.41-8.47-5.02-18.35-9.2-27.26-13.29-8.82-4.14-18.63-7.67-27.63-11.15-8.84-3.52-17.78-6.77-26.51-9.65-8.97-3.16-16.78-5.89-23.24-8.17-6.4-2.61-13.1-4.26-17.02-5.73-4.43-1.34-6.79-2.05-6.79-2.05,0,0-1.31,2.14-3.11,6.04-1.53,3.79-4.73,9.86-6.67,17.09-2.03,7.2-5.43,16.97-6.26,26.93-1.07,10.07-1.38,21.46-.76,33.88.96,12.12,3.53,24.42,6.96,37.65,3.43,13.18,9.08,25.27,15.27,38.17,6.42,12.55,14.41,24.02,23.16,35.52,8.99,10.87,18.96,21.17,29.54,30.6,10.86,8.75,22.09,17.48,34.05,24.23,11.84,6.93,24.07,12.91,36.56,17.22,24.73,9.27,50.19,12.95,72.88,13.34.97,0,1.8-.1,2.72-.13-2.43-15.9-3.31-32.12-3.01-48.41-7.53-4.73-15.1-9.37-22.62-14.68Z" style="stroke-width: 0px;"/>
</svg>