<?xml version="1.0" encoding="UTF-8"?>
<svg xmlns="http://www.w3.org/2000/svg" viewBox="0 0 429.47 510">
  <path d="m214.74,0C96.63,0,0,13.42,0,107.37v255c0,51,42.95,93.95,93.95,93.95l-40.26,40.26v13.42h322.11v-13.42l-40.26-40.26c51,0,93.95-42.95,93.95-93.95V107.37C429.47,13.42,332.84,0,214.74,0Zm-100.87,399.72c-19.92,0-37.35-17.43-37.35-37.35s17.43-37.35,37.35-37.35,37.35,17.43,37.35,37.35-17.43,37.35-37.35,37.35h0Zm71.98-160.5H56.36V109.73h129.49v129.49h0Zm129.75,160.5c-19.92,0-37.35-17.43-37.35-37.35s17.43-37.35,37.35-37.35,37.35,17.43,37.35,37.35-17.43,37.35-37.35,37.35Zm57.51-160.5h-129.49V109.73h129.49v129.49h0Z"/>
</svg>