<?xml version="1.0" encoding="UTF-8"?>
<svg xmlns="http://www.w3.org/2000/svg" viewBox="0 0 512 512">
  <path d="m216.09,428.12c9.43-11.73,23.97-19.12,40.03-19.12s30.35,7.4,39.78,19.12c9.95-2.3,19.38-5.35,28.56-9.18l-36.21-81.09c-9.95,3.82-20.91,5.86-32.13,5.86s-22.95-2.3-33.15-6.38l-36.47,81.35c9.69,4.08,19.38,7.4,29.58,9.44ZM81.45,205c-4.08,15.05-6.38,30.86-6.38,47.18,0,19.12,3.06,37.49,8.41,54.82,16.07,1.28,31.11,10.2,39.78,25.24,8.41,14.53,8.92,31.36,2.81,45.64,6.88,6.89,14.28,13.52,22.18,19.38l38.76-86.45h0c-11.99-14.79-19.12-33.66-19.12-54.32,0-48.2,39.53-86.95,88.23-86.95s88.23,39.01,88.23,86.95c0,20.91-7.39,40.03-19.89,55.08l38.25,85.43c8.16-6.12,15.81-12.75,22.95-20.15-5.61-14.02-5.1-30.6,3.06-44.62,8.41-14.53,22.95-23.46,38.76-25.24,5.61-17.34,8.67-35.95,8.67-55.08,0-16.32-2.3-32.39-6.38-47.43-16.32-1.02-32.13-9.95-40.8-25.5-9.18-15.81-8.93-34.68-.77-49.72-23.2-24.99-53.55-43.61-87.72-52.28-8.92,15.81-25.5,26.01-44.37,26.01s-35.45-10.45-44.37-25.76c-34.17,8.67-64.52,26.78-87.72,51.77,8.41,15.3,8.92,34.42-.51,50.49-8.93,15.81-25.25,24.74-42.08,25.5Zm-33.15-10.71c-19.89-15.3-26.01-43.35-13-65.79s40.29-31.37,63.5-21.67c28.31-29.84,65.28-51.77,106.59-61.71,3.57-24.99,24.99-44.12,50.74-44.12s47.18,19.12,50.49,44.12c41.57,9.94,78.28,31.62,106.59,61.71,23.2-9.69,50.74-.77,63.49,21.67,13.01,22.44,6.89,50.49-13.01,65.79,5.86,19.64,8.93,40.29,8.93,61.71s-3.06,42.07-8.93,61.71c19.89,15.3,26.01,43.35,13.01,65.79s-40.29,31.36-63.49,21.68c-10.2,10.97-21.68,20.65-34.17,29.32l34.17,76.5h-47.43l-24.74-55.34c-10.97,4.59-22.44,8.41-34.17,11.22-3.57,24.99-24.99,44.11-50.74,44.11s-47.18-19.12-50.49-44.11c-12.24-3.06-23.97-6.89-35.19-11.73l-24.99,55.85h-47.94l34.68-77.27c-11.98-8.41-23.2-18.1-33.15-28.56-23.46,9.69-50.75.77-63.75-21.67s-6.88-50.49,13-65.79c-5.87-19.64-8.92-40.29-8.92-61.71s3.06-42.07,8.92-61.71Z" style="stroke-width: 0px;"/>
</svg>