<?xml version="1.0" encoding="UTF-8"?>
<svg id="Calque_1" data-name="Calque 1" xmlns="http://www.w3.org/2000/svg" viewBox="0 0 512 512">
  <path d="m26.5,383.5h459c14.08,0,25.5,11.42,25.5,25.5h0c0,14.08-11.42,25.5-25.5,25.5H26.5c-14.08,0-25.5-11.42-25.5-25.5h0c0-14.08,11.42-25.5,25.5-25.5Zm276.42-234.86c2.55-6.12,4.08-13.01,4.08-20.14,0-28.05-22.95-51-51-51s-51,22.95-51,51c0,7.14,1.53,14.03,4.08,20.14-99.7,20.66-175.69,105.57-182.58,209.36h459c-6.89-103.78-82.88-188.7-182.58-209.36Z" style="stroke-width: 0px;"/>
</svg>