<?xml version="1.0" encoding="UTF-8"?>
<svg xmlns="http://www.w3.org/2000/svg" viewBox="0 0 512 512">
  <path d="m456.36,256H55.64v145.71l-36.43,54.64v54.64h473.57v-54.64l-36.43-54.64v-145.71Zm-291.43,200.36h-36.43v-163.93h36.43v163.93Zm109.29,0h-36.43v-163.93h36.43v163.93Zm109.29,0h-36.43v-163.93h36.43v163.93Z" style="stroke-width: 0px;"/>
  <path d="m456.36,146.71h-145.71V37.43L256,1l-54.64,36.43v109.29H55.64l-36.43,36.43v36.43h473.57v-36.43l-36.43-36.43Zm-200.36-18.71c-15.46,0-28-12.54-28-28s12.54-28,28-28,28,12.54,28,28-12.54,28-28,28Z" style="stroke-width: 0px;"/>
</svg>