<svg xmlns="http://www.w3.org/2000/svg" viewBox="0 0 130 150" class="svg-logo" style="height: auto;" width="130" height="150">
<rect rx="0" ry="0" width="100%" height="100%" fill="rgba(0, 0, 0, 0)"></rect>
<g data-element="wrapper" transform="scale(1.4500000000000102)">
  <g data-element="icon" transform="scale(0.1555541953300679) " fill="rgba(253, 116, 7, 1.0)">
  <path id="color_x5F_3_1_" fill="rgba(0, 0, 0, 0)" d="M407.855,189.88c0,5.348-4.376,9.724-9.725,9.724H96.679    c-5.349,0-9.725-4.376-9.725-9.724c0-5.349,4.376-9.725,9.725-9.725h23.05c0,0,6.482-18.728-4.322-28.092    c-4.8-4.159,13.534-8.993,24.522-2.063c13.749,8.671,21.53,30.155,21.53,30.155h236.672    C403.479,180.155,407.855,184.531,407.855,189.88z M67.866,421.102H44.096c-6.537,0-11.886-5.35-11.886-11.885l0,0    c0-6.538,5.349-11.886,11.886-11.886h23.771c6.536,0,11.885,5.348,11.885,11.886l0,0C79.751,415.752,74.402,421.102,67.866,421.102z     M568.87,409.217L568.87,409.217c0-6.538-5.347-11.886-11.885-11.886h-45.38c-6.537,0-11.886,5.348-11.886,11.886l0,0    c0,6.535,5.349,11.885,11.886,11.885h45.38C563.523,421.102,568.87,415.752,568.87,409.217z M144.264,362.811    c-25.956,0-46.998,21.042-46.998,46.997c0,25.957,21.042,46.998,46.998,46.998s46.999-21.041,46.999-46.998    C191.263,383.853,170.22,362.811,144.264,362.811z M144.264,430.957c-11.681,0-21.149-9.469-21.149-21.149    c0-11.679,9.469-21.147,21.149-21.147s21.148,9.469,21.148,21.147C165.412,421.488,155.944,430.957,144.264,430.957z     M425.715,362.811c-25.956,0-46.997,21.042-46.997,46.997c0,25.957,21.041,46.998,46.997,46.998    c25.957,0,46.999-21.041,46.999-46.998C472.714,383.853,451.672,362.811,425.715,362.811z M425.715,430.957    c-11.68,0-21.148-9.469-21.148-21.149c0-11.679,9.469-21.147,21.148-21.147c11.681,0,21.149,9.469,21.149,21.147    C446.864,421.488,437.396,430.957,425.715,430.957z"></path> <path id="color_x5F_2_1_" fill="#FFFFFF" d="M66.785,393.01c7.439,0,13.707,5.044,15.604,11.887h10.794    c2.481-26.001,24.439-46.407,51.08-46.407c26.642,0,48.599,20.406,51.08,46.407h179.292c2.481-26.001,24.438-46.407,51.079-46.407    s48.599,20.406,51.08,46.407h19.206c1.897-6.843,8.165-11.887,15.604-11.887h41.917c0.846-2.502,1.277-5.382,1.277-8.642v-34.456    c-0.402-7.251-1.005-16.252-20.496-24.987c-5.91-2.649-44.861-13.526-44.861-13.526s-22.717-33.714-48.191-64.75    c-12.086-14.725-27.139-22.191-44.74-22.191H139.897c-28.887,0-51.16,7.771-66.201,23.097    c-19.858,20.234-21.523,47.958-21.318,58.938c0.341,18.165,0.197,62.442,0.086,86.518H66.785z M336.544,259.031    c0-7.149,5.816-12.966,12.966-12.966c0,0,55.26-0.005,55.443-0.005c2.522,0,11.116,0.491,15.752,6.812    c1.932,2.635,16.839,20.897,20.938,26.722c1.244,1.768,5.07,7.987,2.059,13.789c-2.31,4.449-7.706,6.706-16.038,6.706H349.51    c-7.149,0-12.966-5.817-12.966-12.966V259.031z M216.611,259.031c0-7.149,5.816-12.966,12.966-12.966h62.668    c7.149,0,12.965,5.816,12.965,12.966v28.092c0,7.149-5.815,12.966-12.965,12.966h-62.668c-7.149,0-12.966-5.817-12.966-12.966    V259.031z M116.127,259.031c0-7.149,5.816-12.966,12.966-12.966h62.668c7.149,0,12.966,5.816,12.966,12.966v28.092    c0,7.149-5.816,12.966-12.966,12.966h-62.668c-7.149,0-12.966-5.817-12.966-12.966V259.031z M68.946,326.02h41.058    c1.783,0,3.242,1.459,3.242,3.242s-1.459,3.241-3.242,3.241H68.946c-1.782,0-3.241-1.458-3.241-3.241S67.164,326.02,68.946,326.02z     M68.946,338.985h41.058c1.783,0,3.242,1.459,3.242,3.242s-1.459,3.241-3.242,3.241H68.946c-1.782,0-3.241-1.458-3.241-3.241    S67.164,338.985,68.946,338.985z M68.946,351.951h41.058c1.783,0,3.242,1.458,3.242,3.241s-1.459,3.242-3.242,3.242H68.946    c-1.782,0-3.241-1.459-3.241-3.242S67.164,351.951,68.946,351.951z"></path> <path id="color_x5F_1_1_" d="M562.273,393.913c0.734-2.758,1.171-5.913,1.171-9.545v-34.575l-0.007-0.24    c-0.579-10.439-3.082-22.424-25.598-32.517c-6.908-3.096-35.896-11.161-43.026-13.128c-4.385-6.427-24.098-34.986-46.881-62.744    c-13.611-16.584-31.394-25.351-51.422-25.351h-41.418v-11.887h43.038c7.745,0,14.047-6.301,14.047-14.046    c0-7.746-6.302-14.046-14.047-14.046H164.312c-4.791-12.481-11.252-22.087-19.226-28.546c-6.672-5.404-14.3-8.393-21.479-8.415    c-0.026,0-0.052,0-0.078,0c-6.801,0-12.232,2.783-13.852,7.102c-1.212,3.235-0.128,6.732,2.898,9.355    c7.339,6.36,4.213,17.782,3.329,20.505H96.679c-7.745,0-14.046,6.301-14.046,14.046c0,7.745,6.301,14.046,14.046,14.046h43.039    v11.89c-31.205,0.034-55.495,8.673-72.19,25.684c-22.152,22.57-24.018,53.083-23.791,65.155c0.339,18.096,0,86.354,0,86.354    c-8.937,0-16.929,7.27-16.929,16.207c0,8.937,7.271,16.207,16.207,16.207h23.771c7.438,0,13.705-5.042,15.604-11.883h10.705    c1.921,26.56,24.129,47.587,51.17,47.587c27.042,0,49.249-21.027,51.17-47.587h179.112c1.921,26.56,24.128,47.587,51.169,47.587    s49.249-21.027,51.17-47.587h19.117c1.898,6.841,8.165,11.883,15.604,11.883h45.38c8.938,0,16.207-7.271,16.207-16.207    C573.192,402.133,568.618,396.112,562.273,393.913z M118.236,148.797c-0.027-0.024-0.055-0.049-0.08-0.071    c18.522-3.476,35.522,17.274,36.827,27.108h-30.098C126.402,169.64,127.871,157.146,118.236,148.797z M91.276,189.88    c0-2.979,2.424-5.402,5.402-5.402h301.452c2.979,0,5.402,2.423,5.402,5.402c0,2.979-2.423,5.402-5.402,5.402H96.679    C93.7,195.282,91.276,192.858,91.276,189.88z M346.449,203.926v11.887H148.361v-11.887H346.449z M66.785,416.78H43.015    c-4.17,0-7.563-3.394-7.563-7.563s3.394-7.563,7.563-7.563h23.771c4.17,0,7.563,3.394,7.563,7.563S70.955,416.78,66.785,416.78z     M66.785,393.01H52.464c0.111-24.075,0.255-68.353-0.086-86.518c-0.205-10.98,1.46-38.704,21.318-58.938    c15.041-15.326,37.314-23.097,66.201-23.097h256.613c17.602,0,32.654,7.466,44.74,22.191c25.475,31.037,48.191,64.75,48.191,64.75    s38.951,10.877,44.861,13.526c19.491,8.735,20.094,17.736,20.496,24.987v34.456c0,3.26-0.432,6.14-1.277,8.642h-41.917    c-7.439,0-13.707,5.044-15.604,11.887h-19.206c-2.481-26.001-24.439-46.407-51.08-46.407s-48.598,20.406-51.079,46.407H195.344    c-2.481-26.001-24.438-46.407-51.08-46.407c-26.641,0-48.599,20.406-51.08,46.407H82.39C80.492,398.054,74.225,393.01,66.785,393.01    z M144.264,452.484c-23.531,0-42.677-19.145-42.677-42.677c0-23.531,19.146-42.675,42.677-42.675    c23.532,0,42.677,19.144,42.677,42.675C186.94,433.34,167.796,452.484,144.264,452.484z M425.715,452.484    c-23.53,0-42.676-19.145-42.676-42.677c0-23.531,19.146-42.675,42.676-42.675c23.532,0,42.677,19.144,42.677,42.675    C468.392,433.34,449.247,452.484,425.715,452.484z M556.985,416.78h-45.38c-4.17,0-7.563-3.394-7.563-7.563s3.394-7.563,7.563-7.563    h45.38c4.17,0,7.563,3.394,7.563,7.563S561.155,416.78,556.985,416.78z M129.093,300.089h62.668c7.149,0,12.966-5.817,12.966-12.966    v-28.092c0-7.149-5.816-12.966-12.966-12.966h-62.668c-7.149,0-12.966,5.816-12.966,12.966v28.092    C116.127,294.272,121.943,300.089,129.093,300.089z M124.771,259.031c0-2.383,1.938-4.322,4.321-4.322h62.668    c2.384,0,4.321,1.939,4.321,4.322v28.092c0,2.383-1.938,4.322-4.321,4.322h-62.668c-2.384,0-4.321-1.939-4.321-4.322V259.031z     M229.577,300.089h62.668c7.149,0,12.965-5.817,12.965-12.966v-28.092c0-7.149-5.815-12.966-12.965-12.966h-62.668    c-7.149,0-12.966,5.816-12.966,12.966v28.092C216.611,294.272,222.428,300.089,229.577,300.089z M225.255,259.031    c0-2.383,1.938-4.322,4.322-4.322h62.668c2.383,0,4.321,1.939,4.321,4.322v28.092c0,2.383-1.938,4.322-4.321,4.322h-62.668    c-2.384,0-4.322-1.939-4.322-4.322V259.031z M349.51,300.089h78.154c8.332,0,13.729-2.256,16.038-6.706    c3.012-5.802-0.814-12.021-2.059-13.789c-4.1-5.825-19.007-24.087-20.938-26.722c-4.636-6.321-13.229-6.812-15.752-6.812    c-0.184,0-55.443,0.005-55.443,0.005c-7.149,0-12.966,5.816-12.966,12.966v28.092C336.544,294.272,342.36,300.089,349.51,300.089z     M345.188,259.031c0-2.383,1.938-4.322,4.321-4.322h55.104l0.339-0.004c0.651,0,6.443,0.092,8.782,3.28    c2.064,2.816,16.918,21.012,20.839,26.585c1.259,1.788,1.912,3.955,1.456,4.832c-0.394,0.759-2.6,2.044-8.366,2.044H349.51    c-2.384,0-4.321-1.939-4.321-4.322V259.031z M144.264,384.338c-14.045,0-25.471,11.426-25.471,25.47    c0,14.045,11.426,25.472,25.471,25.472c14.044,0,25.471-11.427,25.471-25.472C169.734,395.764,158.308,384.338,144.264,384.338z     M144.264,426.635c-9.278,0-16.827-7.548-16.827-16.827c0-9.278,7.549-16.825,16.827-16.825s16.827,7.547,16.827,16.825    C161.091,419.087,153.542,426.635,144.264,426.635z M425.715,384.338c-14.044,0-25.47,11.426-25.47,25.47    c0,14.045,11.426,25.472,25.47,25.472c14.045,0,25.472-11.427,25.472-25.472C451.187,395.764,439.76,384.338,425.715,384.338z     M425.715,426.635c-9.278,0-16.826-7.548-16.826-16.827c0-9.278,7.548-16.825,16.826-16.825c9.279,0,16.828,7.547,16.828,16.825    C442.543,419.087,434.994,426.635,425.715,426.635z M65.705,329.262c0-1.783,1.459-3.242,3.241-3.242h41.058    c1.783,0,3.242,1.459,3.242,3.242s-1.459,3.241-3.242,3.241H68.946C67.164,332.503,65.705,331.045,65.705,329.262z M65.705,342.228    c0-1.783,1.459-3.242,3.241-3.242h41.058c1.783,0,3.242,1.459,3.242,3.242s-1.459,3.241-3.242,3.241H68.946    C67.164,345.469,65.705,344.011,65.705,342.228z M110.004,358.435H68.946c-1.782,0-3.241-1.459-3.241-3.242s1.459-3.241,3.241-3.241    h41.058c1.783,0,3.242,1.458,3.242,3.241S111.787,358.435,110.004,358.435z M364.996,331.423v2.16c0,3.581-2.901,4.322-6.482,4.322    h-9.725c-3.58,0-6.482-0.741-6.482-4.322v-2.16c0-3.582,2.902-4.322,6.482-4.322h9.725    C362.095,327.101,364.996,327.841,364.996,331.423z"></path></g>
  <text transform="" fill="rgba(242, 183, 5, 1.0)" font-family="Mada" font-size="64" data-element="company-name" dx="0 0 0 0 0 0 0 0 0 0">TrekTracks</text>
  </g>
</svg>
